<svg width="168" height="42" viewBox="0 0 168 42" fill="none" xmlns="http://www.w3.org/2000/svg">
  <rect width="42" height="42" rx="14" fill="url(#paint0_linear)"/>
  <path d="M12 26.5C17.1 19.7 21.2 16.3 25.4 16.3C28.9 16.3 31.3 18.1 34 22" stroke="#081521" stroke-width="3.2" stroke-linecap="round"/>
  <circle cx="13.5" cy="27" r="3.5" fill="#081521"/>
  <circle cx="33" cy="22" r="3" fill="#081521"/>
  <path d="M27.8 13.7L33.7 11.8L31.8 17.7" stroke="#081521" stroke-width="2.2" stroke-linecap="round" stroke-linejoin="round"/>
  <path d="M55.7 12.8H61.8L69.1 26.6L76.5 12.8H82.4V33H77.5V21.7L71 33H67.2L60.6 21.7V33H55.7V12.8Z" fill="#EFF6FF"/>
  <path d="M86.7 18.2H91.6V20.2C92.9 18.6 94.8 17.8 97.2 17.8C101.4 17.8 104.4 21 104.4 25.7C104.4 30.4 101.3 33.5 97 33.5C94.8 33.5 93 32.8 91.8 31.4V39H86.7V18.2ZM99.2 25.7C99.2 23.5 97.7 21.9 95.5 21.9C93.3 21.9 91.8 23.5 91.8 25.7C91.8 27.9 93.3 29.5 95.5 29.5C97.7 29.5 99.2 27.9 99.2 25.7Z" fill="#EFF6FF"/>
  <path d="M107.2 18.2H112.3V20.3C113.2 18.9 114.8 18 116.9 18C117.3 18 117.7 18 118.2 18.1V22.7C117.5 22.5 116.9 22.4 116.2 22.4C113.8 22.4 112.3 23.8 112.3 27V33H107.2V18.2Z" fill="#EFF6FF"/>
  <path d="M127 17.7C131.9 17.7 135.6 21 135.6 25.7C135.6 30.4 131.9 33.6 127 33.6C122.1 33.6 118.4 30.4 118.4 25.7C118.4 21 122.1 17.7 127 17.7ZM127 29.5C129.1 29.5 130.5 27.9 130.5 25.7C130.5 23.5 129.1 21.9 127 21.9C124.9 21.9 123.4 23.5 123.4 25.7C123.4 27.9 124.9 29.5 127 29.5Z" fill="#EFF6FF"/>
  <path d="M137.1 28.6H142C142.2 29.9 143.3 30.7 145 30.7C146.5 30.7 147.4 30.2 147.4 29.3C147.4 28.6 146.8 28.3 145.3 28L142.8 27.5C139.7 26.9 137.8 25.5 137.8 22.7C137.8 19.7 140.4 17.7 144.7 17.7C149.2 17.7 151.8 19.7 152 22.9H147.2C147 21.7 146 21 144.5 21C143.1 21 142.3 21.5 142.3 22.3C142.3 22.9 142.8 23.2 144.1 23.4L146.7 23.9C150.3 24.6 152.1 25.8 152.1 28.8C152.1 31.9 149.3 33.6 144.9 33.6C140.1 33.6 137.4 31.7 137.1 28.6Z" fill="#EFF6FF"/>
  <defs>
    <linearGradient id="paint0_linear" x1="6" y1="4.5" x2="37.5" y2="38" gradientUnits="userSpaceOnUse">
      <stop stop-color="#54D9F6"/>
      <stop offset="1" stop-color="#88F0C8"/>
    </linearGradient>
  </defs>
</svg>
